# xmcd
#
# Track frame offsets:
#	150
#	5239
#	8420
#	14499
#	25133
#	34006
#
# Disc length: 628 seconds
#
# Revision: 1
# Processed by: cddbd v1.5.1PL0 Copyright (c) Steve Scherf et al.
# Submitted via: EasyCDDAExtractor 5.0.6
#
DISCID=39027206
DTITLE=Dollar Bar - Queen Slipper
DYEAR=2002
DGENRE=Indie
TTITLE0=Queen Slipper
TTITLE1=Slave Lay-By
TTITLE2=First Tycoon Of Teen
TTITLE3=Impractical
TTITLE4=Strategy Man
TTITLE5=Red Electric
EXTD=YEAR: 2002 ID3G: 71
EXTT0=
EXTT1=
EXTT2=
EXTT3=
EXTT4=
EXTT5=
PLAYORDER=
